<svg aria-hidden="true" focusable="false" data-prefix="sm" data-icon="steam" role="img" xmlns="http://www.w3.org/2000/svg" viewBox="0 0 24 24" class="auth-button__icon svg-inline--fa fa-steam" data-v-1b540458="" data-v-4922480a=""><path fill="currentColor" d="M18.937 13.063h-.026l-3.238 2.614c0 .413-.077.799-.233 1.158-.15.35-.36.67-.622.942-.261.272-.568.49-.906.647a2.597 2.597 0 0 1-1.114.242 2.73 2.73 0 0 1-1.916-.74 2.888 2.888 0 0 1-.932-1.846l-4.714-2.747c-.244.09-.495.158-.75.202-.26.045-.527.04-.804-.014a2.805 2.805 0 0 1-1.813-1.185 3.2 3.2 0 0 1-.453-1.023 2.751 2.751 0 0 1-.04-1.158c.053-.394.178-.754.377-1.077a2.99 2.99 0 0 1 .738-.821 2.64 2.64 0 0 1 .984-.472c.374-.09.76-.108 1.14-.053a2.744 2.744 0 0 1 1.618.93c.423.492.66 1.063.713 1.709l4.376 2.72a2.77 2.77 0 0 1 1.476-.43h.027l2.408-3.53a4.1 4.1 0 0 1 .324-1.482c.189-.451.457-.862.79-1.211a3.63 3.63 0 0 1 1.165-.809 3.507 3.507 0 0 1 1.425-.296 3.43 3.43 0 0 1 1.45.31 3.92 3.92 0 0 1 2.28 3.569c0 .539-.1 1.041-.298 1.508a4.024 4.024 0 0 1-.803 1.226 3.597 3.597 0 0 1-2.63 1.117Zm-16.214-2.45c0-.395.134-.727.4-.997a1.32 1.32 0 0 1 .972-.403c.277 0 .536.08.778.242l1.294.754a2.197 2.197 0 0 0-.738-1.28 1.993 1.993 0 0 0-1.333-.496 2.027 2.027 0 0 0-1.501.632 2.127 2.127 0 0 0-.622 1.55c0 .61.207 1.13.622 1.56.393.423.936.658 1.501.649.26 0 .51-.055.751-.163l-1.294-.728a1.424 1.424 0 0 1-.829-1.32Zm10.074 2.828a1.71 1.71 0 0 0-.75.163l1.269.726a1.426 1.426 0 0 1 .829 1.32c0 .395-.13.728-.389.997a1.28 1.28 0 0 1-.958.404c-.312 0-.57-.08-.777-.242l-1.295-.754c.086.52.323.947.712 1.279.382.33.864.506 1.36.498.587 0 1.083-.211 1.488-.632.406-.423.61-.939.61-1.55a2.2 2.2 0 0 0-.61-1.562 1.967 1.967 0 0 0-1.489-.647Zm6.139-1.615a2.42 2.42 0 0 0 1.8-.754c.491-.503.738-1.123.738-1.86 0-.735-.247-1.36-.739-1.871a2.4 2.4 0 0 0-1.8-.768 2.358 2.358 0 0 0-.97.202 2.597 2.597 0 0 0-1.348 1.414c-.13.325-.195.673-.193 1.024 0 .359.064.7.193 1.023.13.324.311.602.545.835.233.234.505.42.803.552.302.135.626.202.97.202v.001Z M18.937 7.488c.448 0 .837.17 1.165.512.328.341.492.745.492 1.211 0 .468-.164.867-.492 1.2a1.584 1.584 0 0 1-1.165.498 1.542 1.542 0 0 1-1.153-.499 1.667 1.667 0 0 1-.479-1.198A1.712 1.712 0 0 1 17.785 8a1.522 1.522 0 0 1 1.152-.512Z" ></path></svg>